<?xml version="1.0" encoding="UTF-8" standalone="no"?>
<svg
   xmlns:dc="http://purl.org/dc/elements/1.1/"
   xmlns:cc="http://creativecommons.org/ns#"
   xmlns:rdf="http://www.w3.org/1999/02/22-rdf-syntax-ns#"
   xmlns:svg="http://www.w3.org/2000/svg"
   xmlns="http://www.w3.org/2000/svg"
   xmlns:sodipodi="http://sodipodi.sourceforge.net/DTD/sodipodi-0.dtd"
   xmlns:inkscape="http://www.inkscape.org/namespaces/inkscape"
   version="1.0"
   width="191.21001mm"
   height="102.61mm"
   id="svg192"
   sodipodi:docname="LoRaWAN_CON_Server_to_Endpoint.svg"
   inkscape:version="0.92.2 (5c3e80d, 2017-08-06)">
  <metadata
     id="metadata196">
    <rdf:RDF>
      <cc:Work
         rdf:about="">
        <dc:format>image/svg+xml</dc:format>
        <dc:type
           rdf:resource="http://purl.org/dc/dcmitype/StillImage" />
        <dc:title></dc:title>
      </cc:Work>
    </rdf:RDF>
  </metadata>
  <sodipodi:namedview
     pagecolor="#ffffff"
     bordercolor="#666666"
     borderopacity="1"
     objecttolerance="10"
     gridtolerance="10"
     guidetolerance="10"
     inkscape:pageopacity="0"
     inkscape:pageshadow="2"
     inkscape:window-width="2736"
     inkscape:window-height="1699"
     id="namedview194"
     showgrid="false"
     inkscape:zoom="2.4341357"
     inkscape:cx="361.34174"
     inkscape:cy="193.90866"
     inkscape:window-x="-13"
     inkscape:window-y="-13"
     inkscape:window-maximized="1"
     inkscape:current-layer="svg192" />
  <defs
     id="defs6">
    <clipPath
       clipPathUnits="userSpaceOnUse"
       id="clipEmfPath1">
      <path
         d="M -10.392028,3.6771793 L 713.37278,3.6771793 L 713.37278,391.2199 L -10.392028,391.2199 z"
         id="path2" />
    </clipPath>
    <pattern
       id="EMFhbasepattern"
       patternUnits="userSpaceOnUse"
       width="6"
       height="6"
       x="0"
       y="0" />
  </defs>
  <path
     style="fill:#ffffff;fill-rule:evenodd;fill-opacity:1;stroke:none;"
     d="  M 77.940213,24.381297   L 77.940213,53.478977   L 141.09177,53.478977   L 141.09177,24.381297   L 77.940213,24.381297   z "
     id="path8" />
  <path
     style="fill:none;stroke:#000000;stroke-width:1.2790189px;stroke-linecap:butt;stroke-linejoin:miter;stroke-miterlimit:8;stroke-dasharray:none;stroke-opacity:1;"
     d="  M 77.940213,24.381297   L 141.09177,24.381297   L 141.09177,53.478977   L 77.940213,53.478977   z "
     id="path10" />
  <text
     xml:space="preserve"
     style="font-size:16.000000px;font-style:normal;font-variant:normal;font-weight:400;font-stretch:Normal;line-height:125.000000%;letter-spacing:0px;word-spacing:0px;fill:#000000;fill-opacity:1;stroke:none;font-family:Calibri;text-align:start;text-anchor:start;"
     transform="matrix(1.000000,-0.000000,0.000000,1.000000,87.532855,44.286029)"
     x="0.000000"
     y="0.000000"
     id="text16"><tspan
       sodipodi:role="line"
       x="0.000000"
       y="0.000000"
       id="tspan14"><tspan
         dx="0.000000"
         dy="0.000000"
         style="fill:#000000;font-size:16.000000px;font-style:normal;font-variant:normal;font-weight:400;font-stretch:Normal;font-family:Calibri;"
         id="tspan12">Device</tspan></tspan></text>
  <path
     style="fill:none;stroke:#000000;stroke-width:0.63950944px;stroke-linecap:butt;stroke-linejoin:miter;stroke-miterlimit:8;stroke-dasharray:none;stroke-opacity:1;"
     d="  M 109.43605,53.478977   L 109.43605,390.14073  "
     id="path18" />
  <path
     style="fill:#ffffff;fill-rule:evenodd;fill-opacity:1;stroke:none;"
     d="  M 349.25209,5.0361369   L 349.25209,53.478977   L 425.35372,53.478977   L 425.35372,5.0361369   L 349.25209,5.0361369   z "
     id="path20" />
  <path
     style="fill:none;stroke:#000000;stroke-width:1.2790189px;stroke-linecap:butt;stroke-linejoin:miter;stroke-miterlimit:8;stroke-dasharray:none;stroke-opacity:1;"
     clip-path="url(#clipEmfPath1)"
     d="  M 349.25209,5.0361369   L 425.35372,5.0361369   L 425.35372,53.478977   L 349.25209,53.478977   z "
     id="path22" />
  <text
     xml:space="preserve"
     style="font-size:16.000000px;font-style:normal;font-variant:normal;font-weight:400;font-stretch:Normal;line-height:125.000000%;letter-spacing:0px;word-spacing:0px;fill:#000000;fill-opacity:1;stroke:none;font-family:Calibri;text-align:start;text-anchor:start;"
     x="0.000000"
     y="0.000000"
     id="text28"
     transform="matrix(1.000000,-0.000000,0.000000,1.000000,358.924674,24.913384)"><tspan
       sodipodi:role="line"
       x="0.000000"
       y="0.000000"
       id="tspan26"><tspan
         dx="0.000000"
         dy="0.000000"
         style="fill:#000000;font-size:16.000000px;font-style:normal;font-variant:normal;font-weight:400;font-stretch:Normal;font-family:Calibri;"
         id="tspan24">Network</tspan></tspan></text>
  <text
     xml:space="preserve"
     style="font-size:16.000000px;font-style:normal;font-variant:normal;font-weight:400;font-stretch:Normal;line-height:125.000000%;letter-spacing:0px;word-spacing:0px;fill:#000000;fill-opacity:1;stroke:none;font-family:Calibri;text-align:start;text-anchor:start;"
     x="0.000000"
     y="0.000000"
     id="text34"
     transform="matrix(1.000000,-0.000000,0.000000,1.000000,366.438910,44.098663)"><tspan
       sodipodi:role="line"
       x="0.000000"
       y="0.000000"
       id="tspan32"><tspan
         dx="0.000000"
         dy="0.000000"
         style="fill:#000000;font-size:16.000000px;font-style:normal;font-variant:normal;font-weight:400;font-stretch:Normal;font-family:Calibri;"
         id="tspan30">Server</tspan></tspan></text>
  <path
     style="fill:none;stroke:#000000;stroke-width:0.63950944px;stroke-linecap:butt;stroke-linejoin:miter;stroke-miterlimit:8;stroke-dasharray:none;stroke-opacity:1;"
     d="  M 387.30291,53.478977   L 387.30291,390.14073  "
     id="path36" />
  <path
     style="fill:#ffffff;fill-rule:evenodd;fill-opacity:1;stroke:none;"
     d="  M 618.48557,5.0361369   L 618.48557,53.478977   L 711.85395,53.478977   L 711.85395,5.0361369   L 618.48557,5.0361369   z "
     id="path38" />
  <path
     style="fill:none;stroke:#000000;stroke-width:1.2790189px;stroke-linecap:butt;stroke-linejoin:miter;stroke-miterlimit:8;stroke-dasharray:none;stroke-opacity:1;"
     clip-path="url(#clipEmfPath1)"
     d="  M 618.48557,5.0361369   L 711.85395,5.0361369   L 711.85395,53.478977   L 618.48557,53.478977   z "
     id="path40" />
  <text
     xml:space="preserve"
     style="font-size:16.000000px;font-style:normal;font-variant:normal;font-weight:400;font-stretch:Normal;line-height:125.000000%;letter-spacing:0px;word-spacing:0px;fill:#000000;fill-opacity:1;stroke:none;font-family:Calibri;text-align:start;text-anchor:start;"
     x="0.000000"
     y="0.000000"
     id="text46"
     transform="matrix(1.000000,-0.000000,0.000000,1.000000,628.160569,24.913384)"><tspan
       sodipodi:role="line"
       x="0.000000"
       y="0.000000"
       id="tspan44"><tspan
         dx="0.000000"
         dy="0.000000"
         style="fill:#000000;font-size:16.000000px;font-style:normal;font-variant:normal;font-weight:400;font-stretch:Normal;font-family:Calibri;"
         id="tspan42">Application</tspan></tspan></text>
  <text
     xml:space="preserve"
     style="font-size:16.000000px;font-style:normal;font-variant:normal;font-weight:400;font-stretch:Normal;line-height:125.000000%;letter-spacing:0px;word-spacing:0px;fill:#000000;fill-opacity:1;stroke:none;font-family:Calibri;text-align:start;text-anchor:start;"
     x="0.000000"
     y="0.000000"
     id="text52"
     transform="matrix(1.000000,-0.000000,0.000000,1.000000,644.308183,44.098663)"><tspan
       sodipodi:role="line"
       x="0.000000"
       y="0.000000"
       id="tspan50"><tspan
         dx="0.000000"
         dy="0.000000"
         style="fill:#000000;font-size:16.000000px;font-style:normal;font-variant:normal;font-weight:400;font-stretch:Normal;font-family:Calibri;"
         id="tspan48">Server</tspan></tspan></text>
  <path
     style="fill:none;stroke:#000000;stroke-width:0.63950944px;stroke-linecap:butt;stroke-linejoin:miter;stroke-miterlimit:8;stroke-dasharray:none;stroke-opacity:1;"
     d="  M 665.16976,53.478977   L 665.16976,390.14073  "
     id="path54" />
  <path
     style="fill:#000000;fill-rule:nonzero;fill-opacity:1;stroke:#000000;stroke-width:0.03996934px;stroke-linecap:butt;stroke-linejoin:round;stroke-miterlimit:10;stroke-dasharray:none;stroke-opacity:1;"
     d="  M 393.97779,76.821072   L 665.20973,76.821072   L 665.20973,78.14006   L 393.97779,78.14006   L 393.97779,76.821072  z    M 395.29677,81.457515   L 387.30291,77.460581   L 395.29677,73.463647   L 395.29677,81.457515  z   "
     id="path56" />
  <text
     xml:space="preserve"
     style="font-size:16.000000px;font-style:normal;font-variant:normal;font-weight:400;font-stretch:Normal;line-height:125.000000%;letter-spacing:0px;word-spacing:0px;fill:#000000;fill-opacity:1;stroke:none;font-family:Calibri;text-align:start;text-anchor:start;"
     transform="matrix(1.000000,-0.000000,0.000000,1.000000,460.409366,74.791027)"
     x="0.000000"
     y="0.000000"
     id="text62"><tspan
       sodipodi:role="line"
       x="0.000000"
       y="0.000000"
       id="tspan60"><tspan
         dx="0.000000"
         dy="0.000000"
         style="fill:#000000;font-size:16.000000px;font-style:normal;font-variant:normal;font-weight:400;font-stretch:Normal;font-family:Calibri;"
         id="tspan58">CoAP CON Message</tspan></tspan></text>
  <path
     style="fill:#000000;fill-rule:nonzero;fill-opacity:1;stroke:#000000;stroke-width:0.01998467px;stroke-linecap:butt;stroke-linejoin:round;stroke-miterlimit:4;stroke-dasharray:none;stroke-opacity:1;"
     d="  M 109.43605,146.18786   L 380.64801,146.18786   L 380.64801,147.52683   L 109.43605,147.52683   L 109.43605,146.18786  z    M 379.32902,142.85042   L 387.32289,146.84736   L 379.32902,150.84429   L 379.32902,142.85042  z   "
     id="path64" />
  <text
     xml:space="preserve"
     style="font-size:16.000000px;font-style:normal;font-variant:normal;font-weight:400;font-stretch:Normal;line-height:125.000000%;letter-spacing:0px;word-spacing:0px;fill:#000000;fill-opacity:1;stroke:none;font-family:Calibri;text-align:start;text-anchor:start;"
     transform="matrix(1.000000,-0.000000,0.000000,1.000000,192.329635,144.249251)"
     x="0.000000"
     y="0.000000"
     id="text70"><tspan
       sodipodi:role="line"
       x="0.000000"
       y="0.000000"
       id="tspan68"><tspan
         dx="0.000000"
         dy="0.000000"
         style="fill:#000000;font-size:16.000000px;font-style:normal;font-variant:normal;font-weight:400;font-stretch:Normal;font-family:Calibri;"
         id="tspan66">Any transmission</tspan></tspan></text>
  <path
     style="fill:#000000;fill-rule:nonzero;fill-opacity:1;stroke:#000000;stroke-width:0.01998467px;stroke-linecap:butt;stroke-linejoin:round;stroke-miterlimit:4;stroke-dasharray:none;stroke-opacity:1;"
     d="  M 116.11093,175.28554   L 387.32289,175.28554   L 387.32289,176.62451   L 116.11093,176.62451   L 116.11093,175.28554  z    M 117.42992,179.94197   L 109.43605,175.94504   L 117.42992,171.9481   L 117.42992,179.94197  z   "
     id="path72" />
  <text
     xml:space="preserve"
     style="font-size:16.000000px;font-style:normal;font-variant:normal;font-weight:400;font-stretch:Normal;line-height:125.000000%;letter-spacing:0px;word-spacing:0px;fill:#000000;fill-opacity:1;stroke:none;font-family:Calibri;text-align:start;text-anchor:start;"
     transform="matrix(1.000000,-0.000000,0.000000,1.000000,183.437452,172.109032)"
     x="0.000000"
     y="0.000000"
     id="text78"><tspan
       sodipodi:role="line"
       x="0.000000"
       y="0.000000"
       id="tspan76"><tspan
         dx="0.000000"
         dy="0.000000"
         style="fill:#000000;font-size:16.000000px;font-style:normal;font-variant:normal;font-weight:400;font-stretch:Normal;font-family:Calibri;"
         id="tspan74">CoAP CON Message</tspan></tspan></text>
  <text
     xml:space="preserve"
     style="font-size:16.000000px;font-style:normal;font-variant:normal;font-weight:400;font-stretch:Normal;line-height:125.000000%;letter-spacing:0px;word-spacing:0px;fill:#000000;fill-opacity:1;stroke:none;font-family:Calibri;text-align:start;text-anchor:start;"
     transform="matrix(1.000000,-0.000000,0.000000,1.000000,-0.028430,180.628259)"
     x="0.000000"
     y="0.000000"
     id="text84"><tspan
       sodipodi:role="line"
       x="0.000000"
       y="0.000000"
       id="tspan82"><tspan
         dx="0.000000"
         dy="0.000000"
         style="fill:#000000;font-size:16.000000px;font-style:normal;font-variant:normal;font-weight:400;font-stretch:Normal;font-family:Calibri;"
         id="tspan80">RX Window</tspan></tspan></text>
  <path
     style="fill:none;stroke:#000000;stroke-width:0.63950944px;stroke-linecap:butt;stroke-linejoin:miter;stroke-miterlimit:8;stroke-dasharray:none;stroke-opacity:1;"
     d="  M 105.75887,194.17105   C 100.46294,194.17105 96.166232,193.4616 96.166232,192.57228   L 96.166232,176.82436   C 96.166232,175.94504 91.879521,175.22559 86.573591,175.22559   C 91.879521,175.22559 96.166232,174.51613 96.166232,173.62681   L 96.166232,157.87889   C 96.166232,156.99957 100.46294,156.28012 105.75887,156.28012  "
     id="path86" />
  <path
     style="fill:#ffffff;fill-rule:evenodd;fill-opacity:1;stroke:none;"
     d="  M 84.974817,96.855703   C 84.974817,98.2946 90.72041,99.463703 97.804975,99.463703   C 104.89953,99.463703 110.63513,98.2946 110.63513,96.855703   C 110.63513,95.416807 116.38073,94.247704 123.46529,94.247704   C 130.55985,94.247704 136.29545,95.416807 136.29545,96.855703   L 136.29545,117.70971   C 136.29545,116.27081 130.55985,115.10171 123.46529,115.10171   C 116.38073,115.10171 110.63513,116.27081 110.63513,117.70971   C 110.63513,119.1486 104.89953,120.30771 97.804975,120.30771   C 90.72041,120.30771 84.974817,119.1486 84.974817,117.70971   z "
     id="path88" />
  <path
     style="fill:none;stroke:#000000;stroke-width:1.2790189px;stroke-linecap:butt;stroke-linejoin:miter;stroke-miterlimit:8;stroke-dasharray:none;stroke-opacity:1;"
     d="  M 84.974817,96.855703   C 84.974817,98.2946 90.72041,99.463703 97.804975,99.463703   C 104.89953,99.463703 110.63513,98.2946 110.63513,96.855703   C 110.63513,95.416807 116.38073,94.247704 123.46529,94.247704   C 130.55985,94.247704 136.29545,95.416807 136.29545,96.855703   L 136.29545,117.70971   C 136.29545,116.27081 130.55985,115.10171 123.46529,115.10171   C 116.38073,115.10171 110.63513,116.27081 110.63513,117.70971   C 110.63513,119.1486 104.89953,120.30771 97.804975,120.30771   C 90.72041,120.30771 84.974817,119.1486 84.974817,117.70971   z "
     id="path90" />
  <path
     style="fill:#ffffff;fill-rule:evenodd;fill-opacity:1;stroke:none;"
     d="  M 80.178496,90.25077   L 80.178496,129.90036   L 88.651996,129.90036   L 88.651996,90.25077   L 80.178496,90.25077   z "
     id="path92" />
  <path
     style="fill:none;stroke:#ffffff;stroke-width:1.2790189px;stroke-linecap:butt;stroke-linejoin:miter;stroke-miterlimit:8;stroke-dasharray:none;stroke-opacity:1;"
     d="  M 80.178496,90.25077   L 88.651996,90.25077   L 88.651996,129.90036   L 80.178496,129.90036   z "
     id="path94" />
  <path
     style="fill:#ffffff;fill-rule:evenodd;fill-opacity:1;stroke:none;"
     d="  M 132.61827,85.774204   L 132.61827,125.42379   L 141.09177,125.42379   L 141.09177,85.774204   L 132.61827,85.774204   z "
     id="path96" />
  <path
     style="fill:none;stroke:#ffffff;stroke-width:1.2790189px;stroke-linecap:butt;stroke-linejoin:miter;stroke-miterlimit:8;stroke-dasharray:none;stroke-opacity:1;"
     d="  M 132.61827,85.774204   L 141.09177,85.774204   L 141.09177,125.42379   L 132.61827,125.42379   z "
     id="path98" />
  <path
     style="fill:#ffffff;fill-rule:evenodd;fill-opacity:1;stroke:none;"
     d="  M 361.72253,96.066309   C 361.72253,97.505205 367.45813,98.664316 374.51272,98.664316   C 381.58729,98.664316 387.30291,97.505205 387.30291,96.066309   C 387.30291,94.627413 393.03851,93.448317 400.09309,93.448317   C 407.16767,93.448317 412.88328,94.627413 412.88328,96.066309   L 412.88328,116.91032   C 412.88328,115.47142 407.16767,114.31231 400.09309,114.31231   C 393.03851,114.31231 387.30291,115.47142 387.30291,116.91032   C 387.30291,118.34922 381.58729,119.50833 374.51272,119.50833   C 367.45813,119.50833 361.72253,118.34922 361.72253,116.91032   z "
     id="path100" />
  <path
     style="fill:none;stroke:#000000;stroke-width:1.2790189px;stroke-linecap:butt;stroke-linejoin:miter;stroke-miterlimit:8;stroke-dasharray:none;stroke-opacity:1;"
     d="  M 361.72253,96.066309   C 361.72253,97.505205 367.45813,98.664316 374.51272,98.664316   C 381.58729,98.664316 387.30291,97.505205 387.30291,96.066309   C 387.30291,94.627413 393.03851,93.448317 400.09309,93.448317   C 407.16767,93.448317 412.88328,94.627413 412.88328,96.066309   L 412.88328,116.91032   C 412.88328,115.47142 407.16767,114.31231 400.09309,114.31231   C 393.03851,114.31231 387.30291,115.47142 387.30291,116.91032   C 387.30291,118.34922 381.58729,119.50833 374.51272,119.50833   C 367.45813,119.50833 361.72253,118.34922 361.72253,116.91032   z "
     id="path102" />
  <path
     style="fill:#ffffff;fill-rule:evenodd;fill-opacity:1;stroke:none;"
     d="  M 356.92621,89.451383   L 356.92621,129.10097   L 365.23983,129.10097   L 365.23983,89.451383   L 356.92621,89.451383   z "
     id="path104" />
  <path
     style="fill:none;stroke:#ffffff;stroke-width:1.2790189px;stroke-linecap:butt;stroke-linejoin:miter;stroke-miterlimit:8;stroke-dasharray:none;stroke-opacity:1;"
     d="  M 356.92621,89.451383   L 365.23983,89.451383   L 365.23983,129.10097   L 356.92621,129.10097   z "
     id="path106" />
  <path
     style="fill:#ffffff;fill-rule:evenodd;fill-opacity:1;stroke:none;"
     d="  M 409.36598,84.974817   L 409.36598,124.78428   L 417.6796,124.78428   L 417.6796,84.974817   L 409.36598,84.974817   z "
     id="path108" />
  <path
     style="fill:none;stroke:#ffffff;stroke-width:1.2790189px;stroke-linecap:butt;stroke-linejoin:miter;stroke-miterlimit:8;stroke-dasharray:none;stroke-opacity:1;"
     d="  M 409.36598,84.974817   L 417.6796,84.974817   L 417.6796,124.78428   L 409.36598,124.78428   z "
     id="path110" />
  <path
     style="fill:#ffffff;fill-rule:evenodd;fill-opacity:1;stroke:none;"
     d="  M 639.58938,93.967919   C 639.58938,95.406815 645.34497,96.565926 652.37957,96.565926   C 659.45414,96.565926 665.16976,95.406815 665.16976,93.967919   C 665.16976,92.529022 670.92534,91.369912 677.95995,91.369912   C 685.03452,91.369912 690.75014,92.529022 690.75014,93.967919   L 690.75014,114.71201   C 690.75014,113.27311 685.03452,112.114 677.95995,112.114   C 670.92534,112.114 665.16976,113.27311 665.16976,114.71201   C 665.16976,116.11093 659.45414,117.27004 652.37957,117.27004   C 645.34497,117.27004 639.58938,116.11093 639.58938,114.71201   z "
     id="path112" />
  <path
     style="fill:none;stroke:#000000;stroke-width:1.2790189px;stroke-linecap:butt;stroke-linejoin:miter;stroke-miterlimit:8;stroke-dasharray:none;stroke-opacity:1;"
     d="  M 639.58938,93.967919   C 639.58938,95.406815 645.34497,96.565926 652.37957,96.565926   C 659.45414,96.565926 665.16976,95.406815 665.16976,93.967919   C 665.16976,92.529022 670.92534,91.369912 677.95995,91.369912   C 685.03452,91.369912 690.75014,92.529022 690.75014,93.967919   L 690.75014,114.71201   C 690.75014,113.27311 685.03452,112.114 677.95995,112.114   C 670.92534,112.114 665.16976,113.27311 665.16976,114.71201   C 665.16976,116.11093 659.45414,117.27004 652.37957,117.27004   C 645.34497,117.27004 639.58938,116.11093 639.58938,114.71201   z "
     id="path114" />
  <path
     style="fill:#ffffff;fill-rule:evenodd;fill-opacity:1;stroke:none;"
     d="  M 634.79306,87.2131   L 634.79306,126.86269   L 643.10668,126.86269   L 643.10668,87.2131   L 634.79306,87.2131   z "
     id="path116" />
  <path
     style="fill:none;stroke:#ffffff;stroke-width:1.2790189px;stroke-linecap:butt;stroke-linejoin:miter;stroke-miterlimit:8;stroke-dasharray:none;stroke-opacity:1;"
     d="  M 634.79306,87.2131   L 643.10668,87.2131   L 643.10668,126.86269   L 634.79306,126.86269   z "
     id="path118" />
  <path
     style="fill:#ffffff;fill-rule:evenodd;fill-opacity:1;stroke:none;"
     d="  M 687.23283,82.736534   L 687.23283,122.546   L 695.54646,122.546   L 695.54646,82.736534   L 687.23283,82.736534   z "
     id="path120" />
  <path
     style="fill:none;stroke:#ffffff;stroke-width:1.2790189px;stroke-linecap:butt;stroke-linejoin:miter;stroke-miterlimit:8;stroke-dasharray:none;stroke-opacity:1;"
     d="  M 687.23283,82.736534   L 695.54646,82.736534   L 695.54646,122.546   L 687.23283,122.546   z "
     id="path122" />
  <path
     style="fill:#000000;fill-rule:nonzero;fill-opacity:1;stroke:#000000;stroke-width:0.03996934px;stroke-linecap:butt;stroke-linejoin:round;stroke-miterlimit:10;stroke-dasharray:none;stroke-opacity:1;"
     d="  M 386.98315,186.97657   L 658.21509,186.97657   L 658.21509,188.29556   L 386.98315,188.29556   L 386.98315,186.97657  z    M 656.8961,183.61915   L 664.88997,187.61608   L 656.8961,191.61302   L 656.8961,183.61915  z   "
     id="path124" />
  <text
     xml:space="preserve"
     style="font-size:16.000000px;font-style:normal;font-variant:normal;font-weight:400;font-stretch:Normal;line-height:125.000000%;letter-spacing:0px;word-spacing:0px;fill:#000000;fill-opacity:1;stroke:none;font-family:Calibri;text-align:start;text-anchor:start;"
     transform="matrix(1.000000,-0.000000,0.000000,1.000000,459.746554,185.086480)"
     x="0.000000"
     y="0.000000"
     id="text130"><tspan
       sodipodi:role="line"
       x="0.000000"
       y="0.000000"
       id="tspan128"><tspan
         dx="0.000000"
         dy="0.000000"
         style="fill:#000000;font-size:16.000000px;font-style:normal;font-variant:normal;font-weight:400;font-stretch:Normal;font-family:Calibri;"
         id="tspan126">Delivery Notification</tspan></tspan></text>
  <path
     style="fill:#ffffff;fill-rule:evenodd;fill-opacity:1;stroke:none;"
     d="  M 85.934081,211.32789   C 85.934081,212.76679 91.679674,213.93589 98.764239,213.93589   C 105.8588,213.93589 111.5944,212.76679 111.5944,211.32789   C 111.5944,209.889 117.33999,208.71989 124.42456,208.71989   C 131.51911,208.71989 137.25471,209.889 137.25471,211.32789   L 137.25471,232.1819   C 137.25471,230.743 131.51911,229.5739 124.42456,229.5739   C 117.33999,229.5739 111.5944,230.743 111.5944,232.1819   C 111.5944,233.62079 105.8588,234.7799 98.764239,234.7799   C 91.679674,234.7799 85.934081,233.62079 85.934081,232.1819   z "
     id="path132" />
  <path
     style="fill:none;stroke:#000000;stroke-width:1.2790189px;stroke-linecap:butt;stroke-linejoin:miter;stroke-miterlimit:8;stroke-dasharray:none;stroke-opacity:1;"
     d="  M 85.934081,211.32789   C 85.934081,212.76679 91.679674,213.93589 98.764239,213.93589   C 105.8588,213.93589 111.5944,212.76679 111.5944,211.32789   C 111.5944,209.889 117.33999,208.71989 124.42456,208.71989   C 131.51911,208.71989 137.25471,209.889 137.25471,211.32789   L 137.25471,232.1819   C 137.25471,230.743 131.51911,229.5739 124.42456,229.5739   C 117.33999,229.5739 111.5944,230.743 111.5944,232.1819   C 111.5944,233.62079 105.8588,234.7799 98.764239,234.7799   C 91.679674,234.7799 85.934081,233.62079 85.934081,232.1819   z "
     id="path134" />
  <path
     style="fill:#ffffff;fill-rule:evenodd;fill-opacity:1;stroke:none;"
     d="  M 81.13776,204.56308   L 81.13776,244.21267   L 89.611261,244.21267   L 89.611261,204.56308   L 81.13776,204.56308   z "
     id="path136" />
  <path
     style="fill:none;stroke:#ffffff;stroke-width:1.2790189px;stroke-linecap:butt;stroke-linejoin:miter;stroke-miterlimit:8;stroke-dasharray:none;stroke-opacity:1;"
     d="  M 81.13776,204.56308   L 89.611261,204.56308   L 89.611261,244.21267   L 81.13776,244.21267   z "
     id="path138" />
  <path
     style="fill:#ffffff;fill-rule:evenodd;fill-opacity:1;stroke:none;"
     d="  M 133.57753,200.24639   L 133.57753,239.89598   L 142.05103,239.89598   L 142.05103,200.24639   L 133.57753,200.24639   z "
     id="path140" />
  <path
     style="fill:none;stroke:#ffffff;stroke-width:1.2790189px;stroke-linecap:butt;stroke-linejoin:miter;stroke-miterlimit:8;stroke-dasharray:none;stroke-opacity:1;"
     d="  M 133.57753,200.24639   L 142.05103,200.24639   L 142.05103,239.89598   L 133.57753,239.89598   z "
     id="path142" />
  <path
     style="fill:#ffffff;fill-rule:evenodd;fill-opacity:1;stroke:none;"
     d="  M 362.68179,210.5385   C 362.68179,211.9774 368.41739,213.13651 375.47198,213.13651   C 382.54655,213.13651 388.26217,211.9774 388.26217,210.5385   C 388.26217,209.0996 393.99777,207.92051 401.05236,207.92051   C 408.12693,207.92051 413.84255,209.0996 413.84255,210.5385   L 413.84255,231.38251   C 413.84255,229.94361 408.12693,228.7845 401.05236,228.7845   C 393.99777,228.7845 388.26217,229.94361 388.26217,231.38251   C 388.26217,232.82141 382.54655,233.98052 375.47198,233.98052   C 368.41739,233.98052 362.68179,232.82141 362.68179,231.38251   z "
     id="path144" />
  <path
     style="fill:none;stroke:#000000;stroke-width:1.2790189px;stroke-linecap:butt;stroke-linejoin:miter;stroke-miterlimit:8;stroke-dasharray:none;stroke-opacity:1;"
     d="  M 362.68179,210.5385   C 362.68179,211.9774 368.41739,213.13651 375.47198,213.13651   C 382.54655,213.13651 388.26217,211.9774 388.26217,210.5385   C 388.26217,209.0996 393.99777,207.92051 401.05236,207.92051   C 408.12693,207.92051 413.84255,209.0996 413.84255,210.5385   L 413.84255,231.38251   C 413.84255,229.94361 408.12693,228.7845 401.05236,228.7845   C 393.99777,228.7845 388.26217,229.94361 388.26217,231.38251   C 388.26217,232.82141 382.54655,233.98052 375.47198,233.98052   C 368.41739,233.98052 362.68179,232.82141 362.68179,231.38251   z "
     id="path146" />
  <path
     style="fill:#ffffff;fill-rule:evenodd;fill-opacity:1;stroke:none;"
     d="  M 357.88547,203.7637   L 357.88547,243.57316   L 366.19909,243.57316   L 366.19909,203.7637   L 357.88547,203.7637   z "
     id="path148" />
  <path
     style="fill:none;stroke:#ffffff;stroke-width:1.2790189px;stroke-linecap:butt;stroke-linejoin:miter;stroke-miterlimit:8;stroke-dasharray:none;stroke-opacity:1;"
     d="  M 357.88547,203.7637   L 366.19909,203.7637   L 366.19909,243.57316   L 357.88547,243.57316   z "
     id="path150" />
  <path
     style="fill:#ffffff;fill-rule:evenodd;fill-opacity:1;stroke:none;"
     d="  M 410.32525,199.44701   L 410.32525,239.09659   L 418.63887,239.09659   L 418.63887,199.44701   L 410.32525,199.44701   z "
     id="path152" />
  <path
     style="fill:none;stroke:#ffffff;stroke-width:1.2790189px;stroke-linecap:butt;stroke-linejoin:miter;stroke-miterlimit:8;stroke-dasharray:none;stroke-opacity:1;"
     d="  M 410.32525,199.44701   L 418.63887,199.44701   L 418.63887,239.09659   L 410.32525,239.09659   z "
     id="path154" />
  <path
     style="fill:#ffffff;fill-rule:evenodd;fill-opacity:1;stroke:none;"
     d="  M 640.54864,208.3202   C 640.54864,209.7591 646.30423,210.91821 653.33883,210.91821   C 660.41341,210.91821 666.12902,209.7591 666.12902,208.3202   C 666.12902,206.8813 671.88461,205.68222 678.91921,205.68222   C 685.99378,205.68222 691.7094,206.8813 691.7094,208.3202   L 691.7094,229.14423   C 691.7094,227.70533 685.99378,226.54622 678.91921,226.54622   C 671.88461,226.54622 666.12902,227.70533 666.12902,229.14423   C 666.12902,230.58312 660.41341,231.74223 653.33883,231.74223   C 646.30423,231.74223 640.54864,230.58312 640.54864,229.14423   z "
     id="path156" />
  <path
     style="fill:none;stroke:#000000;stroke-width:1.2790189px;stroke-linecap:butt;stroke-linejoin:miter;stroke-miterlimit:8;stroke-dasharray:none;stroke-opacity:1;"
     d="  M 640.54864,208.3202   C 640.54864,209.7591 646.30423,210.91821 653.33883,210.91821   C 660.41341,210.91821 666.12902,209.7591 666.12902,208.3202   C 666.12902,206.8813 671.88461,205.68222 678.91921,205.68222   C 685.99378,205.68222 691.7094,206.8813 691.7094,208.3202   L 691.7094,229.14423   C 691.7094,227.70533 685.99378,226.54622 678.91921,226.54622   C 671.88461,226.54622 666.12902,227.70533 666.12902,229.14423   C 666.12902,230.58312 660.41341,231.74223 653.33883,231.74223   C 646.30423,231.74223 640.54864,230.58312 640.54864,229.14423   z "
     id="path158" />
  <path
     style="fill:#ffffff;fill-rule:evenodd;fill-opacity:1;stroke:none;"
     d="  M 635.75232,201.52541   L 635.75232,241.33488   L 644.22582,241.33488   L 644.22582,201.52541   L 635.75232,201.52541   z "
     id="path160" />
  <path
     style="fill:none;stroke:#ffffff;stroke-width:1.2790189px;stroke-linecap:butt;stroke-linejoin:miter;stroke-miterlimit:8;stroke-dasharray:none;stroke-opacity:1;"
     d="  M 635.75232,201.52541   L 644.22582,201.52541   L 644.22582,241.33488   L 635.75232,241.33488   z "
     id="path162" />
  <path
     style="fill:#ffffff;fill-rule:evenodd;fill-opacity:1;stroke:none;"
     d="  M 688.1921,197.20872   L 688.1921,236.85831   L 696.50572,236.85831   L 696.50572,197.20872   L 688.1921,197.20872   z "
     id="path164" />
  <path
     style="fill:none;stroke:#ffffff;stroke-width:1.2790189px;stroke-linecap:butt;stroke-linejoin:miter;stroke-miterlimit:8;stroke-dasharray:none;stroke-opacity:1;"
     d="  M 688.1921,197.20872   L 696.50572,197.20872   L 696.50572,236.85831   L 688.1921,236.85831   z "
     id="path166" />
  <path
     style="fill:#000000;fill-rule:nonzero;fill-opacity:1;stroke:#000000;stroke-width:0.01998467px;stroke-linecap:butt;stroke-linejoin:round;stroke-miterlimit:10;stroke-dasharray:none;stroke-opacity:1;"
     d="  M 110.07556,262.4187   L 381.28752,262.4187   L 381.28752,263.75768   L 110.07556,263.75768   L 110.07556,262.4187  z    M 379.96853,259.08126   L 387.9624,263.0782   L 379.96853,267.07513   L 379.96853,259.08126  z   "
     id="path168" />
  <text
     xml:space="preserve"
     style="font-size:16.000000px;font-style:normal;font-variant:normal;font-weight:400;font-stretch:Normal;line-height:125.000000%;letter-spacing:0px;word-spacing:0px;fill:#000000;fill-opacity:1;stroke:none;font-family:Calibri;text-align:start;text-anchor:start;"
     transform="matrix(1.000000,-0.000000,0.000000,1.000000,185.488476,260.402768)"
     x="0.000000"
     y="0.000000"
     id="text174"><tspan
       sodipodi:role="line"
       x="0.000000"
       y="0.000000"
       id="tspan172"><tspan
         dx="0.000000"
         dy="0.000000"
         style="fill:#000000;font-size:16.000000px;font-style:normal;font-variant:normal;font-weight:400;font-stretch:Normal;font-family:Calibri;"
         id="tspan170">CoAP ACK Message</tspan></tspan></text>
  <path
     style="fill:#000000;fill-rule:nonzero;fill-opacity:1;stroke:#000000;stroke-width:0.03996934px;stroke-linecap:butt;stroke-linejoin:round;stroke-miterlimit:4;stroke-dasharray:none;stroke-opacity:1;"
     d="  M 387.94242,291.37649   L 659.17436,291.37649   L 659.17436,292.69548   L 387.94242,292.69548   L 387.94242,291.37649  z    M 657.85537,288.01906   L 665.84924,292.016   L 657.85537,296.01293   L 657.85537,288.01906  z   "
     id="path176" />
  <text
     xml:space="preserve"
     style="font-size:16.000000px;font-style:normal;font-variant:normal;font-weight:400;font-stretch:Normal;line-height:125.000000%;letter-spacing:0px;word-spacing:0px;fill:#000000;fill-opacity:1;stroke:none;font-family:Calibri;text-align:start;text-anchor:start;"
     transform="matrix(1.000000,-0.000000,0.000000,1.000000,463.361320,289.461747)"
     x="0.000000"
     y="0.000000"
     id="text182"><tspan
       sodipodi:role="line"
       x="0.000000"
       y="0.000000"
       id="tspan180"><tspan
         dx="0.000000"
         dy="0.000000"
         style="fill:#000000;font-size:16.000000px;font-style:normal;font-variant:normal;font-weight:400;font-stretch:Normal;font-family:Calibri;"
         id="tspan178">CoAP ACK Message</tspan></tspan></text>
  <text
     xml:space="preserve"
     style="font-size:16.000000px;font-style:normal;font-variant:normal;font-weight:400;font-stretch:Normal;line-height:125.000000%;letter-spacing:0px;word-spacing:0px;fill:#000000;fill-opacity:1;stroke:none;font-family:Calibri;text-align:start;text-anchor:start;"
     transform="matrix(1.000000,-0.000000,0.000000,1.000000,1.305351,297.433484)"
     x="0.000000"
     y="0.000000"
     id="text188"><tspan
       sodipodi:role="line"
       x="0.000000"
       y="0.000000"
       id="tspan186"><tspan
         dx="0.000000"
         dy="0.000000"
         style="fill:#000000;font-size:16.000000px;font-style:normal;font-variant:normal;font-weight:400;font-stretch:Normal;font-family:Calibri;"
         id="tspan184">RX Window</tspan></tspan></text>
  <path
     style="fill:none;stroke:#000000;stroke-width:0.63950944px;stroke-linecap:butt;stroke-linejoin:miter;stroke-miterlimit:8;stroke-dasharray:none;stroke-opacity:1;"
     d="  M 107.03789,311.0414   C 101.74196,311.0414 97.445251,310.34194 97.445251,309.44263   L 97.445251,293.69471   C 97.445251,292.81539 93.168532,292.09594 87.85261,292.09594   C 93.168532,292.09594 97.445251,291.39647 97.445251,290.49716   L 97.445251,274.74924   C 97.445251,273.86992 101.74196,273.15047 107.03789,273.15047  "
     id="path190" />
</svg>
